<svg width="42" height="42" viewBox="0 0 42 42" fill="none" xmlns="http://www.w3.org/2000/svg">
<g clip-path="url(#clip0)">
<path fill-rule="evenodd" clip-rule="evenodd" d="M18.2262 3.13651C18.3569 3.4531 18.6841 3.66074 19.026 3.6444C19.3609 3.62806 19.6582 3.40343 19.7659 3.0862C19.8751 2.76545 19.771 2.40079 19.5092 2.18546C19.2327 1.95795 18.8276 1.93745 18.53 2.13676C18.2079 2.35241 18.0778 2.7773 18.2262 3.13651ZM39.8587 16.1813C39.8452 16.2393 39.8257 16.2954 39.8 16.3489C41.5009 17.8191 42.2366 20.0829 41.9335 22.9543C41.688 25.2778 40.8488 27.1831 40.8133 27.2629C40.8065 27.278 40.7995 27.2927 40.7918 27.3074C39.4944 29.8065 37.8021 30.6432 36.3964 30.8386C36.3733 31.0658 36.3346 31.2907 36.2791 31.5118C35.8763 33.1115 34.6843 34.3938 32.9226 35.1225C31.2454 35.8162 29.2341 35.9242 27.2586 35.4269C27.0103 35.3644 26.7645 35.293 26.5229 35.2122C26.5392 35.9947 26.6495 36.741 26.8526 37.4418C26.9183 37.6677 26.884 37.9109 26.7587 38.1099C26.6334 38.3089 26.429 38.4448 26.197 38.4835L22.4707 39.1036C22.4252 39.1113 22.38 39.1148 22.3351 39.1148C22.0051 39.1148 21.701 38.9161 21.5731 38.6027C21.361 38.0832 21.1982 37.4096 21.0099 36.63L21.0099 36.63L21.0099 36.6299L21.0082 36.6231C20.4894 34.4733 19.7848 31.559 17.5129 29.4114C16.4462 29.5409 15.5483 29.5755 14.894 29.5755C14.1734 29.5755 13.7469 29.5338 13.7126 29.5303C13.7001 29.529 13.6876 29.5274 13.6754 29.5255C9.8238 28.9554 8.07551 26.6893 7.89575 24.3928C7.19752 24.3556 3.66186 24.0669 1.88794 22.0017C1.17241 21.1682 0.830829 20.1701 0.868961 19.0294C0.567433 18.7595 0.209508 18.3241 0.0646721 17.698C-0.106439 16.9597 0.0624291 16.1756 0.566151 15.3626C0.36588 14.5875 0.0736443 12.8757 0.832111 11.2848C1.35474 10.1889 2.25932 9.367 3.52471 8.837C3.67211 8.23522 4.03869 7.26079 4.93366 6.58371C5.70142 6.00276 6.66945 5.76468 7.81885 5.87331C8.3043 4.92995 9.59373 3.47294 12.9291 3.4723C13.3245 3.25152 14.2163 2.80676 15.5179 2.46486C15.9575 2.3495 16.4081 2.61193 16.5237 3.05221C16.6394 3.49185 16.3763 3.94237 15.9364 4.05773C15.2917 4.22724 14.7681 4.42399 14.3804 4.59286C14.6777 5.06293 15.0158 5.70156 15.2308 6.43663C15.8752 6.21938 16.7461 6.05724 17.602 6.31134C18.4057 6.55006 19.0475 7.12204 19.4586 7.96542C19.6579 8.37429 19.4881 8.86744 19.0792 9.06643C18.9629 9.12315 18.8398 9.15006 18.719 9.15006C18.4137 9.15006 18.1205 8.97991 17.9779 8.68704C17.7686 8.25765 17.4924 7.99682 17.1332 7.89044C16.5808 7.72606 15.8886 7.92921 15.4442 8.11827C15.416 8.68255 15.2795 9.26702 14.9828 9.84989C14.8373 10.1354 14.548 10.2998 14.248 10.2998C14.1224 10.2998 13.9949 10.2709 13.875 10.2101C13.47 10.0037 13.3085 9.50767 13.5149 9.10232C14.3128 7.53572 13.2374 5.78711 12.75 5.12157C9.53701 5.18245 9.16819 6.89613 9.16531 6.91408C9.13006 7.1355 9.00605 7.33256 8.82212 7.46042C8.63819 7.58827 8.41037 7.63537 8.19055 7.59179C7.22124 7.39793 6.46309 7.49823 5.93758 7.8898C5.17687 8.45696 5.07209 9.50126 5.07113 9.51183C5.04549 9.83932 4.82824 10.1146 4.51742 10.221C3.44429 10.5882 2.70472 11.1848 2.31892 11.9939C1.6255 13.448 2.23273 15.1999 2.23913 15.2172C2.33366 15.4751 2.29329 15.7635 2.13147 15.9856C1.86391 16.3525 1.56654 16.8831 1.66908 17.3262C1.75528 17.6983 2.10583 17.9094 2.10936 17.9114C2.41185 18.0706 2.58424 18.4007 2.54259 18.7403C2.43396 19.6202 2.62878 20.3361 3.13763 20.9289C4.30882 22.2927 6.91106 22.6958 7.95215 22.7473L8.54911 22.6012C8.81411 22.5365 9.09353 22.607 9.29604 22.7896C9.49856 22.9723 9.59757 23.2434 9.5604 23.5135C9.32841 25.1999 10.3253 27.3568 13.8949 27.8932C14.059 27.9076 15.5246 28.021 17.6174 27.7378C19.9002 27.0985 22.0951 26.689 24.1424 26.5211C24.5951 26.4842 24.9931 26.821 25.0303 27.2744C25.0678 27.7275 24.7304 28.1252 24.277 28.1624C22.728 28.2896 21.0845 28.5642 19.3762 28.9801C21.4283 31.3487 22.1262 34.2355 22.6094 36.2366C22.7097 36.6529 22.8023 37.0358 22.8946 37.3633L25.0569 37.0038C24.873 36.0328 24.8271 35.0059 24.9214 33.9398C24.9451 33.6713 25.0989 33.4309 25.3328 33.2973C25.567 33.1634 25.8519 33.1525 26.0954 33.2685C26.5905 33.504 27.1173 33.6927 27.6611 33.8299C30.9468 34.6572 34.0963 33.4367 34.6821 31.1097C34.7369 30.8928 34.7667 30.6694 34.7731 30.4435C34.2771 30.0449 32.9325 29.1179 30.5773 28.5536C30.1348 28.4479 29.8624 28.0034 29.9682 27.5609C30.0742 27.1187 30.5187 26.846 30.9612 26.9521C33.7176 27.6125 35.2948 28.7318 35.8972 29.2352C37.3026 29.1554 38.4238 28.2816 39.3172 26.5736C39.4857 26.1779 42.0328 20.0054 38.4244 17.3586C37.8666 17.4176 36.5726 17.7172 36.4063 19.2239C36.3599 19.6452 36.0032 19.957 35.5889 19.957C35.5588 19.957 35.5283 19.9554 35.4976 19.9522C35.0455 19.9022 34.7196 19.4953 34.7692 19.0431C35.0317 16.6655 36.954 15.8612 38.2322 15.7209L38.2876 15.6472C38.4036 15.0005 38.2943 14.4439 37.9614 13.9909C37.7079 13.6457 37.4157 13.4814 37.4128 13.4801C37.1215 13.3298 36.9472 13.0212 36.9687 12.6944C37.0414 11.5908 35.2358 10.9471 34.9314 10.8471C34.5888 10.8061 32.7018 10.6551 31.9424 12.158C31.7975 12.4448 31.5075 12.6101 31.2067 12.6101C31.082 12.6101 30.9551 12.5816 30.8359 12.5217C30.4299 12.3163 30.2675 11.8212 30.4725 11.4152C31.3746 9.62911 33.1075 9.23882 34.2184 9.18563C34.0874 8.41755 33.7666 7.80745 33.2472 7.33449C31.7706 5.99059 29.177 6.21842 29.1511 6.22098C28.7755 6.25623 28.4224 6.03256 28.2958 5.6772C27.6998 3.99973 24.9822 4.61753 24.9547 4.62394C24.8009 4.66015 24.64 4.65149 24.491 4.5983C23.6877 4.31344 22.877 4.08945 22.0826 3.93244C21.6363 3.84432 21.346 3.4111 21.4341 2.96505C21.5222 2.51869 21.9557 2.22902 22.4015 2.31681C23.2016 2.47479 24.0148 2.69397 24.8214 2.96954C26.1964 2.71415 28.5544 2.79554 29.5849 4.55697H29.6173C30.6751 4.55697 32.8383 4.74154 34.3482 6.10947C35.2707 6.94548 35.7943 8.06539 35.9093 9.44454C37.0389 9.89667 38.419 10.8333 38.5987 12.2974C39.3912 12.9184 40.3111 14.2293 39.8587 16.1813ZM20.1658 16.2256C19.3785 15.1117 19.1644 13.9768 19.1558 13.929C19.0741 13.4817 19.3705 13.0526 19.8178 12.9712C20.2642 12.8892 20.6923 13.1847 20.7752 13.6304C20.8031 13.7739 21.4472 16.9011 24.7515 16.8181L24.7621 16.8179L24.7727 16.8177C25.2181 16.8177 25.5843 17.1728 25.5955 17.6204C25.6074 18.0751 25.2482 18.4529 24.7935 18.4648C24.7332 18.4661 24.6733 18.467 24.6144 18.467C23.6874 18.467 22.9154 18.2799 22.2752 17.9909C21.7859 19.0182 20.6798 19.6574 19.9184 19.9141C19.8312 19.9436 19.7425 19.9577 19.655 19.9577C19.3112 19.9577 18.9907 19.7407 18.8747 19.3969C18.7299 18.9669 18.96 18.5007 19.3894 18.3542C19.4198 18.3437 20.7137 17.8806 20.8618 17.0347C20.5836 16.7687 20.3536 16.4912 20.1658 16.2256ZM29.196 21.16C30.6257 18.6615 30.0611 16.7296 29.336 15.5488C28.5698 14.302 27.4659 13.6451 27.4195 13.6179C27.0282 13.3885 26.5274 13.5192 26.296 13.9088C26.0647 14.2988 26.1938 14.8032 26.5825 15.0365C26.5908 15.0413 27.4172 15.5437 27.9607 16.4576C28.6467 17.6111 28.5811 18.9179 27.7662 20.3419C27.5403 20.7367 27.6774 21.2397 28.0722 21.4657C28.201 21.5397 28.3417 21.5746 28.4801 21.5746C28.7663 21.5746 29.0438 21.4259 29.196 21.16ZM38.1159 21.936C38.3802 22.3061 38.2944 22.8204 37.9243 23.0848C37.1494 23.6382 36.3855 23.9605 35.6418 24.0515C35.4627 24.6161 35.2073 25.8633 36.116 26.6233C36.465 26.9152 36.5111 27.4347 36.2195 27.7836C36.0564 27.9781 35.8228 28.0787 35.5873 28.0787C35.4008 28.0787 35.2137 28.0156 35.0596 27.8868C33.5708 26.6419 33.7333 24.8641 33.9883 23.8567C32.5634 23.3184 31.8498 21.9793 31.8174 21.9174C31.6069 21.5143 31.7633 21.017 32.1667 20.8065C32.5688 20.5969 33.0639 20.7514 33.2754 21.1516L33.2755 21.1518C33.2909 21.1795 33.8366 22.1621 34.7955 22.3849C35.4335 22.5336 36.1641 22.318 36.9671 21.7444C37.3372 21.48 37.8515 21.5659 38.1159 21.936ZM13.6796 17.796C13.6225 17.3449 13.2105 17.026 12.759 17.0827C12.3078 17.1398 11.9883 17.5522 12.0457 18.0034C12.1886 19.1303 11.3045 19.9506 10.7809 20.331C9.46297 19.6786 7.98705 19.9272 7.91367 19.9401C7.4673 20.0189 7.17026 20.4438 7.24716 20.8905C7.32407 21.3372 7.74961 21.6374 8.19661 21.5627C8.21071 21.5602 9.60076 21.3375 10.4326 22.0584C10.9075 22.4702 11.1372 23.1588 11.1151 24.1051C11.1046 24.5598 11.4647 24.9369 11.9194 24.9475C11.9258 24.9478 11.9322 24.9478 11.939 24.9478C12.3847 24.9478 12.7513 24.5918 12.7618 24.1435C12.7878 23.0361 12.552 22.1248 12.0601 21.4224C12.8673 20.7524 13.9 19.5347 13.6796 17.796ZM5.53863 14.0588C5.71007 13.8845 5.84593 13.6929 5.93533 13.4788L5.95071 13.4429C6.15227 12.9591 6.15739 12.3759 5.96834 11.6786C5.84913 11.2396 6.10837 10.7875 6.54736 10.6683C6.98668 10.5491 7.43881 10.8083 7.55769 11.2473C7.79193 12.1096 7.81436 12.9004 7.62787 13.6102C8.01399 13.9934 8.48247 14.1286 9.07591 14.0328C9.66647 13.9374 10.1458 13.6397 10.1503 13.6368C10.5323 13.3894 11.0421 13.4984 11.2895 13.88C11.5368 14.2616 11.4279 14.7714 11.0463 15.0188C10.9697 15.0685 10.2708 15.5084 9.33771 15.6587C9.13199 15.692 8.93043 15.7084 8.73337 15.7084C8.02553 15.7084 7.37953 15.4953 6.82966 15.0871C6.03082 15.9753 4.99646 16.264 4.94455 16.2781C4.87245 16.2977 4.80035 16.307 4.72922 16.307C4.36648 16.307 4.03387 16.065 3.93486 15.6978C3.81694 15.2604 4.07425 14.8105 4.51004 14.6897L4.51018 14.6897C4.53355 14.6826 5.09289 14.5132 5.53863 14.0588ZM25.2075 6.4735C23.8165 5.64838 22.2178 6.07456 22.1506 6.09315C21.7122 6.21395 21.4546 6.66737 21.5754 7.10572C21.6959 7.54407 22.1499 7.80138 22.5879 7.68122C22.5976 7.67834 23.5845 7.42551 24.367 7.88982C24.8326 8.16604 25.154 8.67008 25.3229 9.38754C25.4123 9.76693 25.7503 10.0226 26.1239 10.0226C26.1864 10.0226 26.2496 10.0153 26.313 10.0005C26.7558 9.89639 27.0305 9.4529 26.926 9.01038C26.6507 7.84048 26.0727 6.98684 25.2075 6.4735ZM19.7047 23.6052C20.7897 23.5484 21.6376 23.0085 22.2243 22.0004C22.4531 21.6072 22.9574 21.4739 23.3503 21.7027C23.7435 21.9315 23.8768 22.4359 23.648 22.8287C22.5287 24.7517 20.8919 25.2086 19.7162 25.2532C19.6461 25.256 19.5768 25.2573 19.5089 25.2573C18.4028 25.2573 17.5671 24.925 17.4703 24.885C17.0502 24.7113 16.8506 24.2297 17.0246 23.8093C17.1979 23.3901 17.6773 23.1902 18.0971 23.3619C18.1147 23.3693 18.8331 23.6503 19.7047 23.6052ZM27.2891 26.954C27.6288 26.8623 27.9928 27.0014 28.1873 27.2914C28.409 27.6227 28.3565 28.0761 28.0649 28.3501C27.821 28.5795 27.4525 28.635 27.1504 28.493C26.8405 28.3472 26.6479 28.0098 26.6828 27.6682C26.7175 27.3302 26.9607 27.0421 27.2891 26.954Z" fill="#282B23"/>
</g>
<defs>
<clipPath id="clip0">
<rect width="42" height="42" fill="white"/>
</clipPath>
</defs>
</svg>
