<svg width="817" height="533" viewBox="0 0 817 533" fill="none" xmlns="http://www.w3.org/2000/svg">
<line x1="76.7707" y1="522.132" x2="9.77073" y2="390.132" stroke="#0099FF" stroke-width="5"/>
<line x1="4.55912" y1="388.46" x2="35.5591" y2="248.46" stroke="#0099FF" stroke-width="5"/>
<line x1="35.163" y1="246.304" x2="179.163" y2="90.3043" stroke="#0099FF" stroke-width="5"/>
<line x1="178.036" y1="88.6934" x2="367.036" y2="9.69339" stroke="#0099FF" stroke-width="5"/>
<line x1="365.08" y1="9.50128" x2="584.08" y2="16.5013" stroke="#0099FF" stroke-width="5"/>
<line x1="585.196" y1="14.8047" x2="730.196" y2="93.8047" stroke="#0099FF" stroke-width="5"/>
<line x1="732.115" y1="94.667" x2="807.115" y2="213.667" stroke="#0099FF" stroke-width="5"/>
<line x1="802.764" y1="217.38" x2="531.764" y2="304.38" stroke="#0099FF" stroke-width="5"/>
<line x1="534.272" y1="304.152" x2="353.272" y2="411.152" stroke="#0099FF" stroke-width="5"/>
<line x1="350.952" y1="413.312" x2="83.9523" y2="523.312" stroke="#0099FF" stroke-width="5"/>
<line x1="263.5" y1="267.965" x2="266.5" y2="50.9654" stroke="#0099FF" stroke-width="5"/>
<line x1="265.049" y1="270.312" x2="85.0494" y2="196.312" stroke="#0099FF" stroke-width="5"/>
<line x1="266.605" y1="269.917" x2="45.6047" y2="454.917" stroke="#0099FF" stroke-width="5"/>
<line x1="416.602" y1="190.708" x2="362.602" y2="7.70754" stroke="#0099FF" stroke-width="5"/>
<line x1="421.494" y1="189.831" x2="433.494" y2="366.831" stroke="#0099FF" stroke-width="5"/>
<line x1="420.199" y1="187.806" x2="592.199" y2="281.806" stroke="#0099FF" stroke-width="5"/>
<line x1="602.06" y1="148.501" x2="768.06" y2="152.501" stroke="#0099FF" stroke-width="5"/>
<line x1="604.24" y1="149.89" x2="659.24" y2="260.89" stroke="#0099FF" stroke-width="5"/>
<line x1="599.792" y1="148.827" x2="650.792" y2="52.8271" stroke="#0099FF" stroke-width="5"/>
<line x1="416.782" y1="188.846" x2="506.782" y2="15.8462" stroke="#0099FF" stroke-width="5"/>
<line x1="267.835" y1="266.788" x2="417.835" y2="187.788" stroke="#0099FF" stroke-width="5"/>
<line x1="418.466" y1="187.558" x2="601.466" y2="147.558" stroke="#0099FF" stroke-width="5"/>
<line x1="270.144" y1="267.714" x2="354.144" y2="407.714" stroke="#0099FF" stroke-width="5"/>
<circle cx="83.5" cy="520.5" r="12.5" fill="#C4C4C4"/>
<circle cx="12.5" cy="388.5" r="12.5" fill="#C4C4C4"/>
<circle cx="38.5" cy="249.5" r="12.5" fill="#C4C4C4"/>
<circle cx="181.5" cy="92.5" r="12.5" fill="#C4C4C4"/>
<circle cx="368.5" cy="12.5" r="12.5" fill="#C4C4C4"/>
<circle cx="583.5" cy="19.5" r="12.5" fill="#C4C4C4"/>
<circle cx="728.5" cy="96.5" r="12.5" fill="#C4C4C4"/>
<circle cx="804.5" cy="215.5" r="12.5" fill="#C4C4C4"/>
<circle cx="530.5" cy="301.5" r="12.5" fill="#C4C4C4"/>
<circle cx="352.5" cy="408.5" r="12.5" fill="#C4C4C4"/>
<circle cx="269.5" cy="268.5" r="12.5" fill="#C4C4C4"/>
<circle cx="418.5" cy="190.5" r="12.5" fill="#C4C4C4"/>
<circle cx="601.5" cy="150.5" r="12.5" fill="#C4C4C4"/>
</svg>
