<svg width="85" height="70" viewBox="0 0 85 70" fill="none" xmlns="http://www.w3.org/2000/svg">
<rect width="85" height="70"/>
<g clip-path="url(#clip0)">
<path fill-rule="evenodd" clip-rule="evenodd" d="M39.2262 17.1365C39.3569 17.4531 39.6841 17.6607 40.026 17.6444C40.3609 17.6281 40.6582 17.4034 40.7659 17.0862C40.8751 16.7654 40.771 16.4008 40.5092 16.1855C40.2327 15.958 39.8276 15.9374 39.53 16.1368C39.2079 16.3524 39.0778 16.7773 39.2262 17.1365ZM60.8587 30.1813C60.8452 30.2393 60.8257 30.2954 60.8 30.3489C62.5009 31.8191 63.2366 34.0829 62.9335 36.9543C62.688 39.2778 61.8488 41.1831 61.8133 41.2629C61.8065 41.278 61.7995 41.2927 61.7918 41.3074C60.4944 43.8065 58.8021 44.6432 57.3964 44.8386C57.3733 45.0658 57.3346 45.2907 57.2791 45.5118C56.8763 47.1115 55.6843 48.3938 53.9226 49.1225C52.2454 49.8162 50.2341 49.9242 48.2586 49.4269C48.0103 49.3644 47.7645 49.293 47.5229 49.2122C47.5392 49.9947 47.6495 50.741 47.8526 51.4418C47.9183 51.6677 47.884 51.9109 47.7587 52.1099C47.6334 52.3089 47.429 52.4448 47.197 52.4835L43.4707 53.1036C43.4252 53.1113 43.38 53.1148 43.3351 53.1148C43.0051 53.1148 42.701 52.9161 42.5731 52.6027C42.361 52.0832 42.1982 51.4096 42.0099 50.63L42.0099 50.63L42.0099 50.6299L42.0082 50.6231C41.4894 48.4733 40.7848 45.559 38.5129 43.4114C37.4462 43.5409 36.5483 43.5755 35.894 43.5755C35.1734 43.5755 34.7469 43.5338 34.7126 43.5303C34.7001 43.529 34.6876 43.5274 34.6754 43.5255C30.8238 42.9554 29.0755 40.6893 28.8957 38.3928C28.1975 38.3556 24.6619 38.0669 22.8879 36.0017C22.1724 35.1682 21.8308 34.1701 21.869 33.0294C21.5674 32.7595 21.2095 32.3241 21.0647 31.698C20.8936 30.9597 21.0624 30.1756 21.5662 29.3626C21.3659 28.5875 21.0736 26.8757 21.8321 25.2848C22.3547 24.1889 23.2593 23.367 24.5247 22.837C24.6721 22.2352 25.0387 21.2608 25.9337 20.5837C26.7014 20.0028 27.6695 19.7647 28.8188 19.8733C29.3043 18.93 30.5937 17.4729 33.9291 17.4723C34.3245 17.2515 35.2163 16.8068 36.5179 16.4649C36.9575 16.3495 37.4081 16.6119 37.5237 17.0522C37.6394 17.4918 37.3763 17.9424 36.9364 18.0577C36.2917 18.2272 35.7681 18.424 35.3804 18.5929C35.6777 19.0629 36.0158 19.7016 36.2308 20.4366C36.8752 20.2194 37.7461 20.0572 38.602 20.3113C39.4057 20.5501 40.0475 21.122 40.4586 21.9654C40.6579 22.3743 40.4881 22.8674 40.0792 23.0664C39.9629 23.1231 39.8398 23.1501 39.719 23.1501C39.4137 23.1501 39.1205 22.9799 38.9779 22.687C38.7686 22.2577 38.4924 21.9968 38.1332 21.8904C37.5808 21.7261 36.8886 21.9292 36.4442 22.1183C36.416 22.6825 36.2795 23.267 35.9828 23.8499C35.8373 24.1354 35.548 24.2998 35.248 24.2998C35.1224 24.2998 34.9949 24.2709 34.875 24.2101C34.47 24.0037 34.3085 23.5077 34.5149 23.1023C35.3128 21.5357 34.2374 19.7871 33.75 19.1216C30.537 19.1825 30.1682 20.8961 30.1653 20.9141C30.1301 21.1355 30.0061 21.3326 29.8221 21.4604C29.6382 21.5883 29.4104 21.6354 29.1905 21.5918C28.2212 21.3979 27.4631 21.4982 26.9376 21.8898C26.1769 22.457 26.0721 23.5013 26.0711 23.5118C26.0455 23.8393 25.8282 24.1146 25.5174 24.221C24.4443 24.5882 23.7047 25.1848 23.3189 25.9939C22.6255 27.448 23.2327 29.1999 23.2391 29.2172C23.3337 29.4751 23.2933 29.7635 23.1315 29.9856C22.8639 30.3525 22.5665 30.8831 22.6691 31.3262C22.7553 31.6983 23.1058 31.9094 23.1094 31.9114C23.4118 32.0706 23.5842 32.4007 23.5426 32.7403C23.434 33.6202 23.6288 34.3361 24.1376 34.9289C25.3088 36.2927 27.9111 36.6958 28.9521 36.7473L29.5491 36.6012C29.8141 36.5365 30.0935 36.607 30.296 36.7896C30.4986 36.9723 30.5976 37.2434 30.5604 37.5135C30.3284 39.1999 31.3253 41.3568 34.8949 41.8932C35.059 41.9076 36.5246 42.021 38.6174 41.7378C40.9002 41.0985 43.0951 40.689 45.1424 40.5211C45.5951 40.4842 45.9931 40.821 46.0303 41.2744C46.0678 41.7275 45.7304 42.1252 45.277 42.1624C43.728 42.2896 42.0845 42.5642 40.3762 42.9801C42.4283 45.3487 43.1262 48.2355 43.6094 50.2366C43.7097 50.6529 43.8023 51.0358 43.8946 51.3633L46.0569 51.0038C45.873 50.0328 45.8271 49.0059 45.9214 47.9398C45.9451 47.6713 46.0989 47.4309 46.3328 47.2973C46.567 47.1634 46.8519 47.1525 47.0954 47.2685C47.5905 47.504 48.1173 47.6927 48.6611 47.8299C51.9468 48.6572 55.0963 47.4367 55.6821 45.1097C55.7369 44.8928 55.7667 44.6694 55.7731 44.4435C55.2771 44.0449 53.9325 43.1179 51.5773 42.5536C51.1348 42.4479 50.8624 42.0034 50.9682 41.5609C51.0742 41.1187 51.5187 40.846 51.9612 40.9521C54.7176 41.6125 56.2948 42.7318 56.8972 43.2352C58.3026 43.1554 59.4238 42.2816 60.3172 40.5736C60.4857 40.1779 63.0328 34.0054 59.4244 31.3586C58.8666 31.4176 57.5726 31.7172 57.4063 33.2239C57.3599 33.6452 57.0032 33.957 56.5889 33.957C56.5588 33.957 56.5283 33.9554 56.4976 33.9522C56.0455 33.9022 55.7196 33.4953 55.7692 33.0431C56.0317 30.6655 57.954 29.8612 59.2322 29.7209L59.2876 29.6472C59.4036 29.0005 59.2943 28.4439 58.9614 27.9909C58.7079 27.6457 58.4157 27.4814 58.4128 27.4801C58.1215 27.3298 57.9472 27.0212 57.9687 26.6944C58.0414 25.5908 56.2358 24.9471 55.9314 24.8471C55.5888 24.8061 53.7018 24.6551 52.9424 26.158C52.7975 26.4448 52.5075 26.6101 52.2067 26.6101C52.082 26.6101 51.9551 26.5816 51.8359 26.5217C51.4299 26.3163 51.2675 25.8212 51.4725 25.4152C52.3746 23.6291 54.1075 23.2388 55.2184 23.1856C55.0874 22.4176 54.7666 21.8074 54.2472 21.3345C52.7706 19.9906 50.177 20.2184 50.1511 20.221C49.7755 20.2562 49.4224 20.0326 49.2958 19.6772C48.6998 17.9997 45.9822 18.6175 45.9547 18.6239C45.8009 18.6601 45.64 18.6515 45.491 18.5983C44.6877 18.3134 43.877 18.0895 43.0826 17.9324C42.6363 17.8443 42.346 17.4111 42.4341 16.9651C42.5222 16.5187 42.9557 16.229 43.4015 16.3168C44.2016 16.4748 45.0148 16.694 45.8214 16.9695C47.1964 16.7142 49.5544 16.7955 50.5849 18.557H50.6173C51.6751 18.557 53.8383 18.7415 55.3482 20.1095C56.2707 20.9455 56.7943 22.0654 56.9093 23.4445C58.0389 23.8967 59.419 24.8333 59.5987 26.2974C60.3912 26.9184 61.3111 28.2293 60.8587 30.1813ZM41.1658 30.2256C40.3785 29.1117 40.1644 27.9768 40.1558 27.929C40.0741 27.4817 40.3705 27.0526 40.8178 26.9712C41.2642 26.8892 41.6923 27.1847 41.7752 27.6304C41.8031 27.7739 42.4472 30.9011 45.7515 30.8181L45.7621 30.8179L45.7727 30.8177C46.2181 30.8177 46.5843 31.1728 46.5955 31.6204C46.6074 32.0751 46.2482 32.4529 45.7935 32.4648C45.7332 32.4661 45.6733 32.467 45.6144 32.467C44.6874 32.467 43.9154 32.2799 43.2752 31.9909C42.7859 33.0182 41.6798 33.6574 40.9184 33.9141C40.8312 33.9436 40.7425 33.9577 40.655 33.9577C40.3112 33.9577 39.9907 33.7407 39.8747 33.3969C39.7299 32.9669 39.96 32.5007 40.3894 32.3542C40.4198 32.3437 41.7137 31.8806 41.8618 31.0347C41.5836 30.7687 41.3536 30.4912 41.1658 30.2256ZM50.196 35.16C51.6257 32.6615 51.0611 30.7296 50.336 29.5488C49.5698 28.302 48.4659 27.6451 48.4195 27.6179C48.0282 27.3885 47.5274 27.5192 47.296 27.9088C47.0647 28.2988 47.1938 28.8032 47.5825 29.0365C47.5908 29.0413 48.4172 29.5437 48.9607 30.4576C49.6467 31.6111 49.5811 32.9179 48.7662 34.3419C48.5403 34.7367 48.6774 35.2397 49.0722 35.4657C49.201 35.5397 49.3417 35.5746 49.4801 35.5746C49.7663 35.5746 50.0438 35.4259 50.196 35.16ZM59.1159 35.936C59.3802 36.3061 59.2944 36.8204 58.9243 37.0848C58.1494 37.6382 57.3855 37.9605 56.6418 38.0515C56.4627 38.6161 56.2073 39.8633 57.116 40.6233C57.465 40.9152 57.5111 41.4347 57.2195 41.7836C57.0564 41.9781 56.8228 42.0787 56.5873 42.0787C56.4008 42.0787 56.2137 42.0156 56.0596 41.8868C54.5708 40.6419 54.7333 38.8641 54.9883 37.8567C53.5634 37.3184 52.8498 35.9793 52.8174 35.9174C52.6069 35.5143 52.7633 35.017 53.1667 34.8065C53.5688 34.5969 54.0639 34.7514 54.2754 35.1516L54.2755 35.1518C54.2909 35.1795 54.8366 36.1621 55.7955 36.3849C56.4335 36.5336 57.1641 36.318 57.9671 35.7444C58.3372 35.48 58.8515 35.5659 59.1159 35.936ZM34.6796 31.796C34.6225 31.3449 34.2105 31.026 33.759 31.0827C33.3078 31.1398 32.9883 31.5522 33.0457 32.0034C33.1886 33.1303 32.3045 33.9506 31.7809 34.331C30.463 33.6786 28.987 33.9272 28.9137 33.9401C28.4673 34.0189 28.1703 34.4438 28.2472 34.8905C28.3241 35.3372 28.7496 35.6374 29.1966 35.5627C29.2107 35.5602 30.6008 35.3375 31.4326 36.0584C31.9075 36.4702 32.1372 37.1588 32.1151 38.1051C32.1046 38.5598 32.4647 38.9369 32.9194 38.9475C32.9258 38.9478 32.9322 38.9478 32.939 38.9478C33.3847 38.9478 33.7513 38.5918 33.7618 38.1435C33.7878 37.0361 33.552 36.1248 33.0601 35.4224C33.8673 34.7524 34.9 33.5347 34.6796 31.796ZM26.5386 28.0588C26.7101 27.8845 26.8459 27.6929 26.9353 27.4788L26.9507 27.4429C27.1523 26.9591 27.1574 26.3759 26.9683 25.6786C26.8491 25.2396 27.1084 24.7875 27.5474 24.6683C27.9867 24.5491 28.4388 24.8083 28.5577 25.2473C28.7919 26.1096 28.8144 26.9004 28.6279 27.6102C29.014 27.9934 29.4825 28.1286 30.0759 28.0328C30.6665 27.9374 31.1458 27.6397 31.1503 27.6368C31.5323 27.3894 32.0421 27.4984 32.2895 27.88C32.5368 28.2616 32.4279 28.7714 32.0463 29.0188C31.9697 29.0685 31.2708 29.5084 30.3377 29.6587C30.132 29.692 29.9304 29.7084 29.7334 29.7084C29.0255 29.7084 28.3795 29.4953 27.8297 29.0871C27.0308 29.9753 25.9965 30.264 25.9445 30.2781C25.8724 30.2977 25.8004 30.307 25.7292 30.307C25.3665 30.307 25.0339 30.065 24.9349 29.6978C24.8169 29.2604 25.0742 28.8105 25.51 28.6897L25.5102 28.6897C25.5335 28.6826 26.0929 28.5132 26.5386 28.0588ZM46.2075 20.4735C44.8165 19.6484 43.2178 20.0746 43.1506 20.0931C42.7122 20.2139 42.4546 20.6674 42.5754 21.1057C42.6959 21.5441 43.1499 21.8014 43.5879 21.6812C43.5976 21.6783 44.5845 21.4255 45.367 21.8898C45.8326 22.166 46.154 22.6701 46.3229 23.3875C46.4123 23.7669 46.7503 24.0226 47.1239 24.0226C47.1864 24.0226 47.2496 24.0153 47.313 24.0005C47.7558 23.8964 48.0305 23.4529 47.926 23.0104C47.6507 21.8405 47.0727 20.9868 46.2075 20.4735ZM40.7047 37.6052C41.7897 37.5484 42.6376 37.0085 43.2243 36.0004C43.4531 35.6072 43.9574 35.4739 44.3503 35.7027C44.7435 35.9315 44.8768 36.4359 44.648 36.8287C43.5287 38.7517 41.8919 39.2086 40.7162 39.2532C40.6461 39.256 40.5768 39.2573 40.5089 39.2573C39.4028 39.2573 38.5671 38.925 38.4703 38.885C38.0502 38.7113 37.8506 38.2297 38.0246 37.8093C38.1979 37.3901 38.6773 37.1902 39.0971 37.3619C39.1147 37.3693 39.8331 37.6503 40.7047 37.6052ZM48.2891 40.954C48.6288 40.8623 48.9928 41.0014 49.1873 41.2914C49.409 41.6227 49.3565 42.0761 49.0649 42.3501C48.821 42.5795 48.4525 42.635 48.1504 42.493C47.8405 42.3472 47.6479 42.0098 47.6828 41.6682C47.7175 41.3302 47.9607 41.0421 48.2891 40.954Z" fill="#282B23"/>
</g>
<defs>
<clipPath id="clip0">
<rect width="42" height="42" fill="white" transform="translate(21 14)"/>
</clipPath>
</defs>
</svg>
