<svg width="85" height="70" viewBox="0 0 85 70" fill="none" xmlns="http://www.w3.org/2000/svg">
<rect width="85" height="70"/>
<path d="M53.55 25.585C51.03 25.585 48.65 26.565 46.9525 28.2625L34.65 39.1825C33.53 40.3025 32.0425 40.915 30.45 40.915C27.1775 40.915 24.5175 38.2725 24.5175 35C24.5175 31.7275 27.1775 29.085 30.45 29.085C32.0425 29.085 33.53 29.6975 34.72 30.8875L36.6975 32.6375L39.34 30.2925L37.135 28.35C35.35 26.565 32.97 25.585 30.45 25.585C25.235 25.585 21 29.82 21 35C21 40.18 25.235 44.415 30.45 44.415C32.97 44.415 35.35 43.435 37.0475 41.7375L49.35 30.8175C50.47 29.6975 51.9575 29.085 53.55 29.085C56.8225 29.085 59.4825 31.7275 59.4825 35C59.4825 38.2725 56.8225 40.915 53.55 40.915C51.975 40.915 50.47 40.3025 49.28 39.1125L47.285 37.345L44.6425 39.69L46.865 41.65C48.65 43.4175 51.0125 44.3975 53.55 44.3975C58.765 44.3975 63 40.18 63 34.9825C63 29.785 58.765 25.585 53.55 25.585Z" fill="#282B23"/>
</svg>
