<svg width="85" height="70" viewBox="0 0 85 70" fill="none" xmlns="http://www.w3.org/2000/svg">
<rect width="85" height="70"/>
<path d="M42 14C30.408 14 21 23.408 21 35C21 46.592 30.408 56 42 56C53.592 56 63 46.592 63 35C63 23.408 53.592 14 42 14ZM31.647 48.188C32.55 46.298 38.052 44.45 42 44.45C45.948 44.45 51.471 46.298 52.353 48.188C49.497 50.456 45.906 51.8 42 51.8C38.094 51.8 34.503 50.456 31.647 48.188ZM55.356 45.143C52.353 41.489 45.066 40.25 42 40.25C38.934 40.25 31.647 41.489 28.644 45.143C26.502 42.329 25.2 38.822 25.2 35C25.2 25.739 32.739 18.2 42 18.2C51.261 18.2 58.8 25.739 58.8 35C58.8 38.822 57.498 42.329 55.356 45.143ZM42 22.4C37.926 22.4 34.65 25.676 34.65 29.75C34.65 33.824 37.926 37.1 42 37.1C46.074 37.1 49.35 33.824 49.35 29.75C49.35 25.676 46.074 22.4 42 22.4ZM42 32.9C40.257 32.9 38.85 31.493 38.85 29.75C38.85 28.007 40.257 26.6 42 26.6C43.743 26.6 45.15 28.007 45.15 29.75C45.15 31.493 43.743 32.9 42 32.9Z" fill="#282B23"/>
</svg>
